<mxfile host="app.diagrams.net" modified="2023-12-23T19:00:34.542Z" agent="Mozilla/5.0 (Macintosh; Intel Mac OS X 10_15_7) AppleWebKit/537.36 (KHTML, like Gecko) Chrome/120.0.0.0 Safari/537.36" etag="TWzrX1dxfxO72woaLto0" version="22.1.11" type="device">
  <diagram name="Page-1" id="aKXbuDSzmHjK1iql_0of">
    <mxGraphModel dx="1194" dy="732" grid="1" gridSize="10" guides="1" tooltips="1" connect="1" arrows="1" fold="1" page="1" pageScale="1" pageWidth="850" pageHeight="1100" math="0" shadow="0">
      <root>
        <mxCell id="0" />
        <mxCell id="1" parent="0" />
        <mxCell id="1ckDcfQqRhezV4ZuqSFP-4" value="" style="edgeStyle=orthogonalEdgeStyle;rounded=0;orthogonalLoop=1;jettySize=auto;html=1;" edge="1" parent="1" source="1ckDcfQqRhezV4ZuqSFP-2" target="1ckDcfQqRhezV4ZuqSFP-3">
          <mxGeometry relative="1" as="geometry" />
        </mxCell>
        <mxCell id="1ckDcfQqRhezV4ZuqSFP-2" value="&lt;font style=&quot;font-size: 14px;&quot;&gt;Domain&lt;/font&gt;" style="rounded=1;whiteSpace=wrap;html=1;" vertex="1" parent="1">
          <mxGeometry x="390" y="70" width="120" height="60" as="geometry" />
        </mxCell>
        <mxCell id="1ckDcfQqRhezV4ZuqSFP-6" value="" style="edgeStyle=orthogonalEdgeStyle;rounded=0;orthogonalLoop=1;jettySize=auto;html=1;" edge="1" parent="1" source="1ckDcfQqRhezV4ZuqSFP-3" target="1ckDcfQqRhezV4ZuqSFP-5">
          <mxGeometry relative="1" as="geometry" />
        </mxCell>
        <mxCell id="1ckDcfQqRhezV4ZuqSFP-3" value="Handler" style="whiteSpace=wrap;html=1;rounded=1;" vertex="1" parent="1">
          <mxGeometry x="390" y="160" width="120" height="60" as="geometry" />
        </mxCell>
        <mxCell id="1ckDcfQqRhezV4ZuqSFP-8" value="" style="edgeStyle=orthogonalEdgeStyle;rounded=0;orthogonalLoop=1;jettySize=auto;html=1;" edge="1" parent="1" source="1ckDcfQqRhezV4ZuqSFP-5" target="1ckDcfQqRhezV4ZuqSFP-7">
          <mxGeometry relative="1" as="geometry" />
        </mxCell>
        <mxCell id="1ckDcfQqRhezV4ZuqSFP-5" value="Use case" style="whiteSpace=wrap;html=1;rounded=1;" vertex="1" parent="1">
          <mxGeometry x="390" y="250" width="120" height="60" as="geometry" />
        </mxCell>
        <mxCell id="1ckDcfQqRhezV4ZuqSFP-10" value="" style="edgeStyle=orthogonalEdgeStyle;rounded=0;orthogonalLoop=1;jettySize=auto;html=1;" edge="1" parent="1" source="1ckDcfQqRhezV4ZuqSFP-7" target="1ckDcfQqRhezV4ZuqSFP-9">
          <mxGeometry relative="1" as="geometry" />
        </mxCell>
        <mxCell id="1ckDcfQqRhezV4ZuqSFP-7" value="Repository" style="whiteSpace=wrap;html=1;rounded=1;" vertex="1" parent="1">
          <mxGeometry x="390" y="340" width="120" height="60" as="geometry" />
        </mxCell>
        <mxCell id="1ckDcfQqRhezV4ZuqSFP-9" value="DB" style="shape=cylinder3;whiteSpace=wrap;html=1;boundedLbl=1;backgroundOutline=1;size=15;" vertex="1" parent="1">
          <mxGeometry x="420" y="430" width="60" height="80" as="geometry" />
        </mxCell>
      </root>
    </mxGraphModel>
  </diagram>
</mxfile>
